<mxfile host="app.diagrams.net" modified="2022-12-17T04:26:36.210Z" agent="5.0 (Windows NT 10.0; Win64; x64) AppleWebKit/537.36 (KHTML, like Gecko) Chrome/108.0.0.0 Safari/537.36" etag="NDBifkFfSiGNrKsEGVE2" version="20.7.4" type="github">
  <diagram id="R2lEEEUBdFMjLlhIrx00" name="Page-1">
    <mxGraphModel dx="1900" dy="577" grid="1" gridSize="10" guides="1" tooltips="1" connect="1" arrows="1" fold="1" page="1" pageScale="1" pageWidth="850" pageHeight="1100" math="0" shadow="0" extFonts="Permanent Marker^https://fonts.googleapis.com/css?family=Permanent+Marker">
      <root>
        <mxCell id="0" />
        <mxCell id="1" parent="0" />
        <mxCell id="5aLCHtzqhKsp2XEcf50f-17" value="&lt;br&gt;Product&lt;br&gt;(Name, ID, Price)" style="whiteSpace=wrap;html=1;" vertex="1" parent="1">
          <mxGeometry x="570" y="70" width="170" height="90" as="geometry" />
        </mxCell>
        <mxCell id="5aLCHtzqhKsp2XEcf50f-24" value="Customer&lt;br&gt;" style="rounded=0;whiteSpace=wrap;html=1;" vertex="1" parent="1">
          <mxGeometry x="50" y="70" width="150" height="80" as="geometry" />
        </mxCell>
        <mxCell id="5aLCHtzqhKsp2XEcf50f-25" value="" style="rounded=0;whiteSpace=wrap;html=1;" vertex="1" parent="1">
          <mxGeometry x="370" y="270" width="180" height="80" as="geometry" />
        </mxCell>
        <mxCell id="5aLCHtzqhKsp2XEcf50f-27" value="Buy" style="rhombus;whiteSpace=wrap;html=1;" vertex="1" parent="1">
          <mxGeometry x="330" y="70" width="80" height="85" as="geometry" />
        </mxCell>
        <mxCell id="5aLCHtzqhKsp2XEcf50f-28" value="ID" style="ellipse;whiteSpace=wrap;html=1;" vertex="1" parent="1">
          <mxGeometry x="-10" y="220" width="70" height="60" as="geometry" />
        </mxCell>
        <mxCell id="5aLCHtzqhKsp2XEcf50f-29" value="Name" style="ellipse;whiteSpace=wrap;html=1;" vertex="1" parent="1">
          <mxGeometry x="90" y="220" width="70" height="60" as="geometry" />
        </mxCell>
        <mxCell id="5aLCHtzqhKsp2XEcf50f-30" value="Email" style="ellipse;whiteSpace=wrap;html=1;" vertex="1" parent="1">
          <mxGeometry x="180" y="220" width="70" height="60" as="geometry" />
        </mxCell>
        <mxCell id="5aLCHtzqhKsp2XEcf50f-49" value="" style="endArrow=none;html=1;rounded=0;entryX=0;entryY=1;entryDx=0;entryDy=0;exitX=0.5;exitY=0;exitDx=0;exitDy=0;" edge="1" parent="1" source="5aLCHtzqhKsp2XEcf50f-28" target="5aLCHtzqhKsp2XEcf50f-24">
          <mxGeometry width="50" height="50" relative="1" as="geometry">
            <mxPoint x="10" y="210" as="sourcePoint" />
            <mxPoint x="60" y="160" as="targetPoint" />
            <Array as="points">
              <mxPoint x="30" y="150" />
            </Array>
          </mxGeometry>
        </mxCell>
        <mxCell id="5aLCHtzqhKsp2XEcf50f-50" value="" style="endArrow=none;html=1;rounded=0;" edge="1" parent="1">
          <mxGeometry x="-1" y="212" width="50" height="50" relative="1" as="geometry">
            <mxPoint x="120" y="220" as="sourcePoint" />
            <mxPoint x="120" y="150" as="targetPoint" />
            <mxPoint x="-60" y="120" as="offset" />
          </mxGeometry>
        </mxCell>
        <mxCell id="5aLCHtzqhKsp2XEcf50f-51" value="" style="endArrow=none;html=1;rounded=0;entryX=1;entryY=1;entryDx=0;entryDy=0;" edge="1" parent="1" target="5aLCHtzqhKsp2XEcf50f-24">
          <mxGeometry width="50" height="50" relative="1" as="geometry">
            <mxPoint x="220" y="220" as="sourcePoint" />
            <mxPoint x="270" y="170" as="targetPoint" />
            <Array as="points">
              <mxPoint x="220" y="150" />
            </Array>
          </mxGeometry>
        </mxCell>
      </root>
    </mxGraphModel>
  </diagram>
</mxfile>
